# xmcd
#
# Track frame offsets: 
#        150
#        13217
#        23430
#        32947
#        41682
#        55307
#        68227
#        79900
#        99340
#        108920
#        119462
#        141085
#
# Disc length: 2900 seconds
#
# Revision: 0
# Processed by: cddbd v1.5PL3 Copyright (c) Steve Scherf et al.
# Submitted via: ExactAudioCopy v0.95a3
#
DISCID=9d0b520c
DTITLE=COWPOKES - ROUGH TIME EVERYDAY
DYEAR=2003
DGENRE=Punk Rock
TTITLE0=Truth Is Find
TTITLE1=Can Make Me Likely
TTITLE2=Rock on swing
TTITLE3=Ever Green
TTITLE4=Running To New West go
TTITLE5=RONSAMU cowboy
TTITLE6=Get Up
TTITLE7=AM Folding Out
TTITLE8=We Are The Cowpokes
TTITLE9=Rough Time Everyday
TTITLE10=But Just This Song
TTITLE11=DATA
EXTD=
EXTT0=
EXTT1=
EXTT2=
EXTT3=
EXTT4=
EXTT5=
EXTT6=
EXTT7=
EXTT8=
EXTT9=
EXTT10=
EXTT11=
PLAYORDER=
